<mxfile host="Electron" agent="Mozilla/5.0 (Macintosh; Intel Mac OS X 10_15_7) AppleWebKit/537.36 (KHTML, like Gecko) draw.io/28.0.6 Chrome/138.0.7204.100 Electron/37.2.3 Safari/537.36" version="28.0.6" pages="2">
  <diagram name="app-component" id="BVCaPAYkqAic5rKPLI_f">
    <mxGraphModel dx="1250" dy="871" grid="1" gridSize="10" guides="1" tooltips="1" connect="1" arrows="1" fold="1" page="1" pageScale="1" pageWidth="1169" pageHeight="827" math="0" shadow="0">
      <root>
        <mxCell id="0" />
        <mxCell id="1" parent="0" />
        <mxCell id="Ix1DJ9jEfy01dlpOwwJF-5" style="edgeStyle=orthogonalEdgeStyle;rounded=0;orthogonalLoop=1;jettySize=auto;html=1;exitX=0;exitY=0.75;exitDx=0;exitDy=0;entryX=1;entryY=0.75;entryDx=0;entryDy=0;strokeWidth=2;dashed=1;" parent="1" source="Ix1DJ9jEfy01dlpOwwJF-2" target="Ix1DJ9jEfy01dlpOwwJF-1" edge="1">
          <mxGeometry relative="1" as="geometry" />
        </mxCell>
        <mxCell id="Ix1DJ9jEfy01dlpOwwJF-7" value="Send log to frontend" style="edgeLabel;html=1;align=center;verticalAlign=middle;resizable=0;points=[];" parent="Ix1DJ9jEfy01dlpOwwJF-5" vertex="1" connectable="0">
          <mxGeometry x="0.0535" y="-3" relative="1" as="geometry">
            <mxPoint as="offset" />
          </mxGeometry>
        </mxCell>
        <mxCell id="Ix1DJ9jEfy01dlpOwwJF-1" value="&lt;font&gt;Front-end&lt;/font&gt;&lt;div&gt;&lt;font&gt;(React Native)&lt;/font&gt;&lt;/div&gt;" style="rounded=1;whiteSpace=wrap;html=1;strokeWidth=2;fontSize=15;" parent="1" vertex="1">
          <mxGeometry x="240" y="320" width="120" height="170" as="geometry" />
        </mxCell>
        <mxCell id="Ix1DJ9jEfy01dlpOwwJF-2" value="&lt;span&gt;DFS&lt;/span&gt;&lt;div&gt;&lt;span&gt;(Native | Rust)&lt;/span&gt;&lt;/div&gt;" style="rounded=1;whiteSpace=wrap;html=1;strokeWidth=2;fontSize=15;" parent="1" vertex="1">
          <mxGeometry x="650" y="320" width="120" height="170" as="geometry" />
        </mxCell>
        <mxCell id="Ix1DJ9jEfy01dlpOwwJF-3" value="&lt;h1 style=&quot;margin-top: 0px;&quot;&gt;App component&lt;/h1&gt;&lt;p&gt;- [?] How could FE acknowledge DFS is still running?&lt;/p&gt;&lt;p&gt;- [?] How could FE stop DFS?&lt;/p&gt;&lt;p&gt;- [?] How could FE communicate with DFS? Via UDS (i.e. LocalSocket in Android)&lt;/p&gt;&lt;p&gt;- [?] How could FE start DFS? Trigger as normal&lt;/p&gt;&lt;p&gt;- [?] How could FE pass configurations to DFS? In trigger() method, FE passes configurations as arguments.&lt;/p&gt;&lt;p&gt;- DFS runs as Android service&lt;/p&gt;" style="text;html=1;whiteSpace=wrap;overflow=hidden;rounded=0;fontSize=15;" parent="1" vertex="1">
          <mxGeometry width="1110" height="310" as="geometry" />
        </mxCell>
        <mxCell id="Ix1DJ9jEfy01dlpOwwJF-4" value="" style="endArrow=none;html=1;rounded=0;exitX=1;exitY=0.25;exitDx=0;exitDy=0;entryX=0;entryY=0.25;entryDx=0;entryDy=0;strokeWidth=4;" parent="1" source="Ix1DJ9jEfy01dlpOwwJF-1" target="Ix1DJ9jEfy01dlpOwwJF-2" edge="1">
          <mxGeometry width="50" height="50" relative="1" as="geometry">
            <mxPoint x="460" y="400" as="sourcePoint" />
            <mxPoint x="510" y="350" as="targetPoint" />
          </mxGeometry>
        </mxCell>
        <mxCell id="Ix1DJ9jEfy01dlpOwwJF-6" value="Start/stop DFS" style="edgeLabel;html=1;align=center;verticalAlign=middle;resizable=0;points=[];" parent="Ix1DJ9jEfy01dlpOwwJF-4" vertex="1" connectable="0">
          <mxGeometry x="0.0552" relative="1" as="geometry">
            <mxPoint as="offset" />
          </mxGeometry>
        </mxCell>
      </root>
    </mxGraphModel>
  </diagram>
  <diagram id="m-_BVg7DhSqTS9g6pPYH" name="app-routes">
    <mxGraphModel dx="976" dy="681" grid="1" gridSize="10" guides="1" tooltips="1" connect="1" arrows="1" fold="1" page="1" pageScale="1" pageWidth="1169" pageHeight="827" math="0" shadow="0">
      <root>
        <mxCell id="0" />
        <mxCell id="1" parent="0" />
        <mxCell id="gxuwK_Q2ZNs260GLyuwU-13" value="&lt;font style=&quot;font-size: 16px;&quot;&gt;DFS&lt;/font&gt;" style="swimlane;whiteSpace=wrap;html=1;strokeWidth=1;dashed=1;" vertex="1" parent="1">
          <mxGeometry x="190" y="500" width="490" height="280" as="geometry" />
        </mxCell>
        <mxCell id="gxuwK_Q2ZNs260GLyuwU-1" value="Screen: DFS Log" style="swimlane;fontStyle=0;childLayout=stackLayout;horizontal=1;startSize=30;horizontalStack=0;resizeParent=1;resizeParentMax=0;resizeLast=0;collapsible=1;marginBottom=0;whiteSpace=wrap;html=1;strokeWidth=2;rounded=1;" vertex="1" parent="gxuwK_Q2ZNs260GLyuwU-13">
          <mxGeometry x="25" y="140" width="200" height="60" as="geometry" />
        </mxCell>
        <mxCell id="gxuwK_Q2ZNs260GLyuwU-2" value="Show current log of DFS" style="text;strokeColor=none;fillColor=none;align=left;verticalAlign=middle;spacingLeft=4;spacingRight=4;overflow=hidden;points=[[0,0.5],[1,0.5]];portConstraint=eastwest;rotatable=0;whiteSpace=wrap;html=1;" vertex="1" parent="gxuwK_Q2ZNs260GLyuwU-1">
          <mxGeometry y="30" width="200" height="30" as="geometry" />
        </mxCell>
        <mxCell id="gxuwK_Q2ZNs260GLyuwU-5" value="Screen: DFS Setting" style="swimlane;fontStyle=0;childLayout=stackLayout;horizontal=1;startSize=30;horizontalStack=0;resizeParent=1;resizeParentMax=0;resizeLast=0;collapsible=1;marginBottom=0;whiteSpace=wrap;html=1;strokeWidth=2;rounded=1;" vertex="1" parent="gxuwK_Q2ZNs260GLyuwU-13">
          <mxGeometry x="265" y="140" width="200" height="120" as="geometry" />
        </mxCell>
        <mxCell id="gxuwK_Q2ZNs260GLyuwU-6" value="Show status of DFS" style="text;strokeColor=none;fillColor=none;align=left;verticalAlign=middle;spacingLeft=4;spacingRight=4;overflow=hidden;points=[[0,0.5],[1,0.5]];portConstraint=eastwest;rotatable=0;whiteSpace=wrap;html=1;" vertex="1" parent="gxuwK_Q2ZNs260GLyuwU-5">
          <mxGeometry y="30" width="200" height="30" as="geometry" />
        </mxCell>
        <mxCell id="gxuwK_Q2ZNs260GLyuwU-7" value="Turn on/off DFS" style="text;strokeColor=none;fillColor=none;align=left;verticalAlign=middle;spacingLeft=4;spacingRight=4;overflow=hidden;points=[[0,0.5],[1,0.5]];portConstraint=eastwest;rotatable=0;whiteSpace=wrap;html=1;" vertex="1" parent="gxuwK_Q2ZNs260GLyuwU-5">
          <mxGeometry y="60" width="200" height="30" as="geometry" />
        </mxCell>
        <mxCell id="gxuwK_Q2ZNs260GLyuwU-8" value="Set configurations for DFS" style="text;strokeColor=none;fillColor=none;align=left;verticalAlign=middle;spacingLeft=4;spacingRight=4;overflow=hidden;points=[[0,0.5],[1,0.5]];portConstraint=eastwest;rotatable=0;whiteSpace=wrap;html=1;" vertex="1" parent="gxuwK_Q2ZNs260GLyuwU-5">
          <mxGeometry y="90" width="200" height="30" as="geometry" />
        </mxCell>
        <mxCell id="N1Cx6lXwzWXnlInLCZiX-39" value="- Each screen is a tab" style="text;html=1;align=left;verticalAlign=middle;whiteSpace=wrap;rounded=0;" vertex="1" parent="gxuwK_Q2ZNs260GLyuwU-13">
          <mxGeometry x="10" y="30" width="470" height="70" as="geometry" />
        </mxCell>
        <mxCell id="gxuwK_Q2ZNs260GLyuwU-14" value="&lt;font style=&quot;font-size: 16px;&quot;&gt;Home&lt;/font&gt;" style="swimlane;whiteSpace=wrap;html=1;strokeWidth=1;dashed=1;" vertex="1" parent="1">
          <mxGeometry x="190" y="180" width="490" height="240" as="geometry" />
        </mxCell>
        <mxCell id="gxuwK_Q2ZNs260GLyuwU-15" value="Screen: Image" style="swimlane;fontStyle=0;childLayout=stackLayout;horizontal=1;startSize=30;horizontalStack=0;resizeParent=1;resizeParentMax=0;resizeLast=0;collapsible=1;marginBottom=0;whiteSpace=wrap;html=1;strokeWidth=2;rounded=1;" vertex="1" parent="gxuwK_Q2ZNs260GLyuwU-14">
          <mxGeometry x="25" y="130" width="165" height="60" as="geometry" />
        </mxCell>
        <mxCell id="gxuwK_Q2ZNs260GLyuwU-16" value="Show image of the day" style="text;strokeColor=none;fillColor=none;align=left;verticalAlign=middle;spacingLeft=4;spacingRight=4;overflow=hidden;points=[[0,0.5],[1,0.5]];portConstraint=eastwest;rotatable=0;whiteSpace=wrap;html=1;" vertex="1" parent="gxuwK_Q2ZNs260GLyuwU-15">
          <mxGeometry y="30" width="165" height="30" as="geometry" />
        </mxCell>
        <mxCell id="gxuwK_Q2ZNs260GLyuwU-24" value="Screen: Video" style="swimlane;fontStyle=0;childLayout=stackLayout;horizontal=1;startSize=30;horizontalStack=0;resizeParent=1;resizeParentMax=0;resizeLast=0;collapsible=1;marginBottom=0;whiteSpace=wrap;html=1;strokeWidth=2;rounded=1;" vertex="1" parent="gxuwK_Q2ZNs260GLyuwU-14">
          <mxGeometry x="220" y="130" width="165" height="60" as="geometry" />
        </mxCell>
        <mxCell id="gxuwK_Q2ZNs260GLyuwU-25" value="Show video of the day" style="text;strokeColor=none;fillColor=none;align=left;verticalAlign=middle;spacingLeft=4;spacingRight=4;overflow=hidden;points=[[0,0.5],[1,0.5]];portConstraint=eastwest;rotatable=0;whiteSpace=wrap;html=1;" vertex="1" parent="gxuwK_Q2ZNs260GLyuwU-24">
          <mxGeometry y="30" width="165" height="30" as="geometry" />
        </mxCell>
        <mxCell id="N1Cx6lXwzWXnlInLCZiX-38" value="- Each screen is a tab" style="text;html=1;align=left;verticalAlign=middle;whiteSpace=wrap;rounded=0;" vertex="1" parent="gxuwK_Q2ZNs260GLyuwU-14">
          <mxGeometry x="10" y="30" width="480" height="70" as="geometry" />
        </mxCell>
        <mxCell id="gxuwK_Q2ZNs260GLyuwU-21" value="&lt;font style=&quot;font-size: 16px;&quot;&gt;Retrieval&lt;/font&gt;" style="swimlane;whiteSpace=wrap;html=1;strokeWidth=1;dashed=1;" vertex="1" parent="1">
          <mxGeometry x="730" y="180" width="490" height="240" as="geometry" />
        </mxCell>
        <mxCell id="gxuwK_Q2ZNs260GLyuwU-9" value="Screen: Retrieval Homepage" style="swimlane;fontStyle=0;childLayout=stackLayout;horizontal=1;startSize=30;horizontalStack=0;resizeParent=1;resizeParentMax=0;resizeLast=0;collapsible=1;marginBottom=0;whiteSpace=wrap;html=1;strokeWidth=2;rounded=1;" vertex="1" parent="gxuwK_Q2ZNs260GLyuwU-21">
          <mxGeometry x="30" y="70" width="200" height="70" as="geometry" />
        </mxCell>
        <mxCell id="gxuwK_Q2ZNs260GLyuwU-10" value="Allow to select search by image or text" style="text;strokeColor=none;fillColor=none;align=left;verticalAlign=middle;spacingLeft=4;spacingRight=4;overflow=hidden;points=[[0,0.5],[1,0.5]];portConstraint=eastwest;rotatable=0;whiteSpace=wrap;html=1;" vertex="1" parent="gxuwK_Q2ZNs260GLyuwU-9">
          <mxGeometry y="30" width="200" height="40" as="geometry" />
        </mxCell>
        <mxCell id="N1Cx6lXwzWXnlInLCZiX-11" value="Screen: Retrieval with text" style="swimlane;fontStyle=0;childLayout=stackLayout;horizontal=1;startSize=30;horizontalStack=0;resizeParent=1;resizeParentMax=0;resizeLast=0;collapsible=1;marginBottom=0;whiteSpace=wrap;html=1;strokeWidth=2;rounded=1;" vertex="1" parent="gxuwK_Q2ZNs260GLyuwU-21">
          <mxGeometry x="270" y="70" width="200" height="120" as="geometry" />
        </mxCell>
        <mxCell id="N1Cx6lXwzWXnlInLCZiX-12" value="Allow type query" style="text;strokeColor=none;fillColor=none;align=left;verticalAlign=middle;spacingLeft=4;spacingRight=4;overflow=hidden;points=[[0,0.5],[1,0.5]];portConstraint=eastwest;rotatable=0;whiteSpace=wrap;html=1;" vertex="1" parent="N1Cx6lXwzWXnlInLCZiX-11">
          <mxGeometry y="30" width="200" height="30" as="geometry" />
        </mxCell>
        <mxCell id="N1Cx6lXwzWXnlInLCZiX-36" value="Show tag autosuggestion as typing" style="text;strokeColor=none;fillColor=none;align=left;verticalAlign=middle;spacingLeft=4;spacingRight=4;overflow=hidden;points=[[0,0.5],[1,0.5]];portConstraint=eastwest;rotatable=0;whiteSpace=wrap;html=1;" vertex="1" parent="N1Cx6lXwzWXnlInLCZiX-11">
          <mxGeometry y="60" width="200" height="30" as="geometry" />
        </mxCell>
        <mxCell id="N1Cx6lXwzWXnlInLCZiX-37" value="Allow select tags" style="text;strokeColor=none;fillColor=none;align=left;verticalAlign=middle;spacingLeft=4;spacingRight=4;overflow=hidden;points=[[0,0.5],[1,0.5]];portConstraint=eastwest;rotatable=0;whiteSpace=wrap;html=1;" vertex="1" parent="N1Cx6lXwzWXnlInLCZiX-11">
          <mxGeometry y="90" width="200" height="30" as="geometry" />
        </mxCell>
        <mxCell id="N1Cx6lXwzWXnlInLCZiX-1" value="&lt;h1 style=&quot;margin-top: 0px;&quot;&gt;App screens&lt;/h1&gt;&lt;p&gt;- Grouped by functionality&lt;/p&gt;&lt;p&gt;- Each functionality is a tab in bottom navigation bar&lt;/p&gt;" style="text;html=1;whiteSpace=wrap;overflow=hidden;rounded=0;fontSize=15;" vertex="1" parent="1">
          <mxGeometry width="640" height="120" as="geometry" />
        </mxCell>
        <mxCell id="N1Cx6lXwzWXnlInLCZiX-2" value="&lt;font style=&quot;font-size: 16px;&quot;&gt;Utils&lt;/font&gt;" style="swimlane;whiteSpace=wrap;html=1;strokeWidth=1;dashed=1;" vertex="1" parent="1">
          <mxGeometry x="730" y="500" width="490" height="350" as="geometry" />
        </mxCell>
        <mxCell id="gxuwK_Q2ZNs260GLyuwU-11" value="Screen: View resource (Zoom/Carousel)" style="swimlane;fontStyle=0;childLayout=stackLayout;horizontal=1;startSize=30;horizontalStack=0;resizeParent=1;resizeParentMax=0;resizeLast=0;collapsible=1;marginBottom=0;whiteSpace=wrap;html=1;strokeWidth=2;rounded=1;" vertex="1" parent="N1Cx6lXwzWXnlInLCZiX-2">
          <mxGeometry x="20" y="70" width="200" height="100" as="geometry" />
        </mxCell>
        <mxCell id="gxuwK_Q2ZNs260GLyuwU-12" value="View resource" style="text;strokeColor=none;fillColor=none;align=left;verticalAlign=middle;spacingLeft=4;spacingRight=4;overflow=hidden;points=[[0,0.5],[1,0.5]];portConstraint=eastwest;rotatable=0;whiteSpace=wrap;html=1;" vertex="1" parent="gxuwK_Q2ZNs260GLyuwU-11">
          <mxGeometry y="30" width="200" height="30" as="geometry" />
        </mxCell>
        <mxCell id="gxuwK_Q2ZNs260GLyuwU-26" value="Button: Crop: Allow search for similar by cropping specific area" style="text;strokeColor=none;fillColor=none;align=left;verticalAlign=middle;spacingLeft=4;spacingRight=4;overflow=hidden;points=[[0,0.5],[1,0.5]];portConstraint=eastwest;rotatable=0;whiteSpace=wrap;html=1;" vertex="1" parent="gxuwK_Q2ZNs260GLyuwU-11">
          <mxGeometry y="60" width="200" height="40" as="geometry" />
        </mxCell>
        <mxCell id="N1Cx6lXwzWXnlInLCZiX-8" value="Screen: Crop image" style="swimlane;fontStyle=0;childLayout=stackLayout;horizontal=1;startSize=30;horizontalStack=0;resizeParent=1;resizeParentMax=0;resizeLast=0;collapsible=1;marginBottom=0;whiteSpace=wrap;html=1;strokeWidth=2;rounded=1;" vertex="1" parent="N1Cx6lXwzWXnlInLCZiX-2">
          <mxGeometry x="20" y="220" width="200" height="100" as="geometry" />
        </mxCell>
        <mxCell id="N1Cx6lXwzWXnlInLCZiX-9" value="Crop image" style="text;strokeColor=none;fillColor=none;align=left;verticalAlign=middle;spacingLeft=4;spacingRight=4;overflow=hidden;points=[[0,0.5],[1,0.5]];portConstraint=eastwest;rotatable=0;whiteSpace=wrap;html=1;" vertex="1" parent="N1Cx6lXwzWXnlInLCZiX-8">
          <mxGeometry y="30" width="200" height="30" as="geometry" />
        </mxCell>
        <mxCell id="N1Cx6lXwzWXnlInLCZiX-10" value="Button: Cancel/Search" style="text;strokeColor=none;fillColor=none;align=left;verticalAlign=middle;spacingLeft=4;spacingRight=4;overflow=hidden;points=[[0,0.5],[1,0.5]];portConstraint=eastwest;rotatable=0;whiteSpace=wrap;html=1;" vertex="1" parent="N1Cx6lXwzWXnlInLCZiX-8">
          <mxGeometry y="60" width="200" height="40" as="geometry" />
        </mxCell>
        <mxCell id="N1Cx6lXwzWXnlInLCZiX-13" value="Screen: View resource (List)" style="swimlane;fontStyle=0;childLayout=stackLayout;horizontal=1;startSize=30;horizontalStack=0;resizeParent=1;resizeParentMax=0;resizeLast=0;collapsible=1;marginBottom=0;whiteSpace=wrap;html=1;strokeWidth=2;rounded=1;" vertex="1" parent="N1Cx6lXwzWXnlInLCZiX-2">
          <mxGeometry x="250" y="70" width="200" height="110" as="geometry" />
        </mxCell>
        <mxCell id="N1Cx6lXwzWXnlInLCZiX-14" value="View image/video in device ordered by created date" style="text;strokeColor=none;fillColor=none;align=left;verticalAlign=middle;spacingLeft=4;spacingRight=4;overflow=hidden;points=[[0,0.5],[1,0.5]];portConstraint=eastwest;rotatable=0;whiteSpace=wrap;html=1;" vertex="1" parent="N1Cx6lXwzWXnlInLCZiX-13">
          <mxGeometry y="30" width="200" height="40" as="geometry" />
        </mxCell>
        <mxCell id="N1Cx6lXwzWXnlInLCZiX-33" value="View retrieved image/video" style="text;strokeColor=none;fillColor=none;align=left;verticalAlign=middle;spacingLeft=4;spacingRight=4;overflow=hidden;points=[[0,0.5],[1,0.5]];portConstraint=eastwest;rotatable=0;whiteSpace=wrap;html=1;" vertex="1" parent="N1Cx6lXwzWXnlInLCZiX-13">
          <mxGeometry y="70" width="200" height="40" as="geometry" />
        </mxCell>
      </root>
    </mxGraphModel>
  </diagram>
</mxfile>
